<?xml version="1.0" standalone="no"?>
<!DOCTYPE svg PUBLIC "-//W3C//DTD SVG 20010904//EN"
 "http://www.w3.org/TR/2001/REC-SVG-20010904/DTD/svg10.dtd">
<svg version="1.0" xmlns="http://www.w3.org/2000/svg"
 width="512.000000pt" height="512.000000pt" viewBox="0 0 512.000000 512.000000"
 preserveAspectRatio="xMidYMid meet">

<g transform="translate(0.000000,512.000000) scale(0.100000,-0.100000)"
fill="#000000" stroke="none">
<path d="M2583 4920 c-255 -21 -490 -103 -707 -247 -133 -87 -329 -283 -406
-405 -50 -79 -57 -86 -80 -80 -43 10 -232 6 -295 -7 -176 -38 -350 -144 -462
-284 -136 -168 -192 -348 -179 -574 l6 -111 -48 -39 c-110 -88 -218 -223 -288
-360 -221 -433 -136 -969 212 -1333 132 -138 270 -231 431 -290 157 -57 197
-60 750 -60 564 0 541 -3 582 70 38 67 19 145 -46 187 -25 17 -68 18 -543 23
-570 7 -561 6 -709 76 -258 121 -444 367 -501 664 -6 30 -11 103 -11 161 -1
280 136 533 379 702 99 68 119 114 92 207 -6 19 -15 67 -21 106 -35 249 132
496 384 569 72 21 202 21 277 0 118 -32 182 -10 227 79 144 286 408 514 708
611 236 76 510 74 751 -5 181 -60 325 -150 465 -289 170 -171 281 -379 324
-611 40 -212 43 -216 187 -255 241 -65 419 -182 559 -367 142 -189 210 -391
210 -628 0 -261 -94 -502 -270 -691 -145 -157 -291 -246 -490 -302 -70 -19
-109 -21 -533 -26 l-458 -6 -37 -38 c-35 -34 -38 -42 -38 -95 0 -65 21 -102
72 -127 46 -22 848 -22 979 0 253 44 484 165 674 355 293 292 436 714 375
1110 -75 497 -419 913 -876 1060 l-67 21 -12 62 c-6 34 -27 109 -46 166 -161
485 -579 859 -1087 972 -72 16 -314 43 -337 37 -3 0 -46 -4 -97 -8z"/>
<path d="M2510 3159 c-30 -12 -805 -782 -826 -821 -8 -15 -14 -48 -14 -74 0
-40 5 -51 38 -85 44 -43 76 -54 130 -44 32 6 75 44 310 278 l272 272 0 -1193
c0 -1311 -4 -1226 61 -1272 21 -16 45 -22 80 -22 57 0 91 19 119 65 19 31 20
60 20 1227 l0 1195 268 -267 c147 -147 280 -272 295 -278 16 -5 40 -10 54 -10
36 0 97 37 116 70 21 35 22 102 3 138 -22 42 -797 810 -829 822 -34 12 -64 12
-97 -1z"/>
</g>
</svg>
